<?xml version="1.0" encoding="UTF-8"?>
<svg width="124px" height="147px" viewBox="0 0 124 147" version="1.1" xmlns="http://www.w3.org/2000/svg" xmlns:xlink="http://www.w3.org/1999/xlink">
    <!-- Generator: Sketch 60.1 (88133) - https://sketch.com -->
    <title>Slice 1</title>
    <desc>Created with Sketch.</desc>
    <defs>
        <path d="M18,-2.27373675e-13 L102,-2.27373675e-13 C111.941125,-2.29199831e-13 120,8.0588745 120,18 L120,100 C120,109.941125 111.941125,118 102,118 L18,118 C8.0588745,118 1.21743675e-15,109.941125 0,100 L0,18 C-1.21743675e-15,8.0588745 8.0588745,-2.18442093e-13 18,-2.27373675e-13 Z" id="path-1"></path>
    </defs>
    <g id="Page-1" stroke="none" stroke-width="1" fill="none" fill-rule="evenodd">
        <g id="Group-11" transform="translate(1.000000, 1.000000)">
            <g id="Rectangle" transform="translate(1.000000, 4.000000)">
                <mask id="mask-2" fill="white">
                    <use xlink:href="#path-1"></use>
                </mask>
                <path stroke="#9A7719" d="M18,-0.5 L102,-0.5 C112.217268,-0.5 120.5,7.78273213 120.5,18 L120.5,100 C120.5,110.217268 112.217268,118.5 102,118.5 L18,118.5 C7.78273213,118.5 -0.5,110.217268 -0.5,100 L-0.5,18 C-0.5,7.78273213 7.78273213,-0.5 18,-0.5 Z"></path>
                <path d="M3,113 L114,113 C115.104569,113 116,113.895431 116,115 L116,118 C116,120.761424 113.761424,123 111,123 L6,123 C3.23857625,123 1,120.761424 1,118 L1,115 C1,113.895431 1.8954305,113 3,113 Z" fill="#F8D372" mask="url(#mask-2)"></path>
            </g>
            <path d="M6,-2.27373675e-13 L116,-2.27373675e-13 C119.313708,-2.27982394e-13 122,2.6862915 122,6 L122,106 C122,109.313708 119.313708,112 116,112 L6,112 C2.6862915,112 4.05812251e-16,109.313708 0,106 L0,6 C-4.05812251e-16,2.6862915 2.6862915,-2.26764957e-13 6,-2.27373675e-13 Z" id="Rectangle" stroke="#9A7719" fill="#FDE29A" fill-rule="nonzero"></path>
            <path d="M110,80 C113.313708,80 116,82.6862915 116,86 L115.999,100.997 L112.531461,89.295259 C111.800104,86.827259 109.580597,85.1100091 107.026874,85.0050911 L106.778735,85 L15.624496,85 C12.7805026,85 10.32721,86.996619 9.74956224,89.7813311 L9.74956224,89.7813311 L6.1280087,107.238689 C6.04411381,106.838985 6,106.424644 6,106 L6,86 C6,82.6862915 8.6862915,80 12,80 L110,80 Z" id="Combined-Shape" fill="#F8D372" fill-rule="nonzero" transform="translate(61.000000, 93.627804) rotate(-180.000000) translate(-61.000000, -93.627804) "></path>
            <path d="M110,4 C113.313708,4 116,6.6862915 116,10 L115.999,24.997 L112.531461,13.295259 C111.800104,10.827259 109.580597,9.1100091 107.026874,9.00509114 L106.778735,9 L15.624496,9 C12.7805026,9 10.32721,10.996619 9.74956224,13.7813311 L9.74956224,13.7813311 L6.1280087,31.2386894 C6.04411381,30.8389847 6,30.424644 6,30 L6,10 C6,6.6862915 8.6862915,4 12,4 L110,4 Z" id="Combined-Shape" fill="#F8D372" fill-rule="nonzero" transform="translate(61.000000, 17.627804) rotate(-360.000000) translate(-61.000000, -17.627804) "></path>
            <path d="M36.6162945,64.6714182 C34.4718813,66.5281848 33.5447832,69.4275801 34.2140881,72.1840491 C34.8833929,74.9405181 37.0368844,77.091908 39.7940056,77.7585212 C42.5511268,78.4251345 45.4496154,77.4952059 47.3042875,75.3489808 L64.7907519,55.1011856 C65.1412234,54.7041845 65.705218,54.5737247 66.1944253,54.7764964 C68.9227154,55.8594157 71.8982654,56.1628759 74.788995,55.65301 C81.1156512,54.5107849 86.1493611,49.7018804 87.5792462,43.4339713 C88.0013314,41.5804717 88.0831575,39.6657073 87.8207384,37.7829558 C87.7544158,37.3188969 87.4304328,36.9327101 86.9849701,36.7867225 C86.5395074,36.6407349 86.0497933,36.7602558 85.7216706,37.0950467 L77.4301932,45.5694839 C77.1216866,45.8846407 76.6677853,46.0100034 76.2412614,45.8978543 L68.883112,43.961622 C68.4556191,43.8489678 68.1217695,43.5150713 68.0091753,43.0875626 L66.072943,35.7296586 C65.960622,35.3030512 66.0861098,34.8489898 66.4015589,34.5406041 L74.8778367,26.2497402 C75.2127991,25.9216635 75.3324317,25.4318568 75.1864236,24.9863057 C75.0404156,24.5407546 74.6540953,24.2167498 74.1899275,24.1505497 C72.3035396,23.8873788 70.385003,23.9697503 68.5281136,24.3936371 C62.2616913,25.8268635 57.4558941,30.862336 56.3165602,37.1887967 C55.8083736,40.0774476 56.1121968,43.0504711 57.1941781,45.7766174 C57.3984895,46.2641587 57.2691449,46.8276963 56.8726794,47.1773457 C53.9151363,49.7315429 41.9701077,60.0479716 36.6162945,64.6714182 Z M41.3582784,74.2918389 C39.8698123,74.2918886 38.5278847,73.3952898 37.9582505,72.0201359 C37.3886162,70.6449819 37.7034584,69.0620943 38.7559629,68.0095898 C39.8084675,66.9570853 41.3913551,66.6422431 42.766509,67.2118773 C44.141663,67.7815116 45.0382121,69.1234391 45.0382121,70.6119053 C45.0383748,71.5879794 44.6507366,72.5241299 43.960594,73.2143646 C43.2704514,73.9045992 42.3343525,74.2923298 41.3582784,74.2923298 L41.3582784,74.2918389 Z" id="Shape" fill="#EFB41F" fill-rule="nonzero"></path>
        </g>
        <ellipse id="Oval" fill="#E8E8EE" cx="64.9753086" cy="141.302469" rx="34.1851852" ry="5.69753086"></ellipse>
    </g>
</svg>