<?xml version="1.0" encoding="UTF-8"?>
<svg width="128px" height="124px" viewBox="0 0 128 124" version="1.1" xmlns="http://www.w3.org/2000/svg" xmlns:xlink="http://www.w3.org/1999/xlink">
    <!-- Generator: Sketch 60.1 (88133) - https://sketch.com -->
    <title>Untitled 25</title>
    <desc>Created with Sketch.</desc>
    <g id="Page-1" stroke="none" stroke-width="1" fill="none" fill-rule="evenodd">
        <g id="Group-16" transform="translate(0.000000, 2.000000)">
            <path d="M5.29070083,65.9930556 C5.19413242,65.9976797 5.09721115,66 5,66 C1.6862915,66 -1,63.3137085 -1,60 C-1,56.6862915 1.6862915,54 5,54 C5.09722136,54 5.19417111,54.0023207 5.29078778,54.0069437 C8.31637868,22.9605267 34.504883,-1 66,-1 C99.6893697,-1 127,26.3106303 127,60 C127,93.6893697 99.6893697,121 66,121 C34.5049991,121 8.31668923,97.0396913 5.2907022,65.9930697 Z" id="Combined-Shape" stroke="#7B87AF" stroke-width="2"></path>
            <path d="M92.6738306,52.1058193 L85.7890221,48.4293429 C85.5315861,48.2913944 85.1819167,48.3753375 85.0132115,48.6154268 L78.7133257,57.5920636 C78.5452042,57.8327398 78.1739359,57.9747975 77.8890634,57.9078777 L74.005924,56.9991782 C73.7204677,56.9328455 73.4542753,56.6405119 73.4134125,56.3493523 L71.9009028,45.5289007 C71.86004,45.2377412 71.5868426,45 71.2943812,45 L61.7260502,45 C61.4335889,45 61.1603915,45.2377412 61.1183611,45.5289007 L59.5673236,56.3587446 C59.5252932,56.6499041 59.2585171,56.9428247 58.9742283,57.0097445 L55.0794139,57.9243142 C54.7951251,57.9906469 54.4244406,57.8491762 54.2551516,57.609087 L47.9558495,48.6353853 C47.7871443,48.3952961 47.4386424,48.3113529 47.1800389,48.4493015 L40.3261694,52.1058193 C40.0681497,52.2437679 39.9350535,52.5836497 40.0313731,52.8613079 L47.525622,74.496928 C47.6225253,74.7745862 47.9400881,75 48.2325495,75 L84.7884657,75 C85.0803433,75 85.3984899,74.7745862 85.4942257,74.496928 L92.9686269,52.8613079 C93.0649465,52.5836497 92.9318503,52.2437679 92.6738306,52.1058193" id="Fill-1" fill="#7B87AF"></path>
        </g>
    </g>
</svg>