<?xml version="1.0" encoding="UTF-8"?>
<svg width="226px" height="18px" viewBox="0 0 226 18" version="1.1" xmlns="http://www.w3.org/2000/svg" xmlns:xlink="http://www.w3.org/1999/xlink">
    <!-- Generator: Sketch 60.1 (88133) - https://sketch.com -->
    <title>Untitled 4</title>
    <desc>Created with Sketch.</desc>
    <g id="Page-1" stroke="none" stroke-width="1" fill="none" fill-rule="evenodd">
        <path d="M56.7597817,15.7058065 L56.7597817,17.7290323 L47.8001378,17.7290323 L47.8001378,4.90322581 L56.7597817,4.90322581 L56.7597817,6.92645161 L49.9727168,6.92645161 L49.9727168,10.2141935 L56.4545434,10.2141935 L56.4545434,12.2374194 L49.9727168,12.2374194 L49.9727168,15.7058065 L56.7597817,15.7058065 Z M82.929485,15.7058065 L82.929485,17.7290323 L74.8496458,17.7290323 L74.8496458,4.90322581 L77.0222248,4.90322581 L77.0222248,15.7058065 L82.929485,15.7058065 Z M109.224875,15.7058065 L109.224875,17.7290323 L100.265231,17.7290323 L100.265231,4.90322581 L109.224875,4.90322581 L109.224875,6.92645161 L102.43781,6.92645161 L102.43781,10.2141935 L108.919636,10.2141935 L108.919636,12.2374194 L102.43781,12.2374194 L102.43781,15.7058065 L109.224875,15.7058065 Z M128.104767,17.7290323 L125.806502,17.7290323 L130.744182,4.90322581 L133.060402,4.90322581 L138.016037,17.7290323 L135.645951,17.7290323 L134.730235,15.2541935 L129.020482,15.2541935 L128.104767,17.7290323 Z M131.893314,7.61290323 L131.857404,7.61290323 L129.73869,13.2670968 L134.012028,13.2670968 L131.893314,7.61290323 Z M157.290944,8.51612903 L157.290944,17.7290323 L155.154275,17.7290323 L155.154275,4.90322581 L157.362765,4.90322581 L163.557308,14.1341935 L163.557308,4.90322581 L165.693977,4.90322581 L165.693977,17.7290323 L163.467532,17.7290323 L157.290944,8.51612903 Z M185.938464,11.316129 C185.938464,14.08 187.733984,15.9045161 190.229757,15.9045161 C192.725529,15.9045161 194.521049,14.08 194.521049,11.316129 C194.521049,8.55225806 192.725529,6.72774194 190.229757,6.72774194 C187.733984,6.72774194 185.938464,8.55225806 185.938464,11.316129 Z M183.640199,11.316129 C183.640199,7.50451613 186.351434,4.63225806 190.229757,4.63225806 C194.10808,4.63225806 196.819315,7.50451613 196.819315,11.316129 C196.819315,15.1277419 194.10808,18 190.229757,18 C186.351434,18 183.640199,15.1277419 183.640199,11.316129 Z M225,17.7290323 L222.450362,17.7290323 L219.864813,12.6709677 L216.938116,12.6709677 L216.938116,17.7290323 L214.765537,17.7290323 L214.765537,4.90322581 L220.367559,4.90322581 C223.186525,4.90322581 224.569075,6.54709677 224.569075,8.78709677 C224.569075,10.4851613 223.761091,11.8580645 222.073303,12.4 L225,17.7290323 Z M222.378541,8.78709677 C222.378541,7.68516129 221.732154,6.92645161 220.385514,6.92645161 L216.938116,6.92645161 L216.938116,10.6477419 L220.385514,10.6477419 C221.732154,10.6477419 222.378541,9.88903226 222.378541,8.78709677 Z" id="Combined-Shape" fill="#FFFFFF"></path>
        <path d="M31.8030675,4.26349157 L27.646202,2.05760576 C27.4907689,1.97483661 27.2796478,2.02520252 27.1777881,2.16925606 L23.3740834,7.55523813 C23.2725761,7.69964388 23.0484141,7.78487849 22.8764156,7.74472665 L20.5318786,7.19950691 C20.3595277,7.15970728 20.1988078,6.98430713 20.1741358,6.8096114 L19.2609225,0.31734043 C19.2362505,0.142644699 19.0713012,0 18.8947207,0 L13.1176152,0 C12.9410348,0 12.7760854,0.142644699 12.7507086,0.31734043 L11.8142331,6.81524674 C11.7888563,6.98994247 11.6277839,7.16569483 11.4561379,7.20584667 L9.10455176,7.7545885 C8.93290571,7.79438813 8.70909618,7.70950573 8.60688396,7.5654522 L4.80353178,2.18123117 C4.70167201,2.03717763 4.49125581,1.98681172 4.33511782,2.06958087 L0.196932495,4.26349157 C0.0411469643,4.34626071 -0.0392129927,4.5501898 0.0189422393,4.71678472 L4.54377175,17.6981568 C4.60227943,17.8647517 4.79401547,18 4.9705959,18 L27.0420925,18 C27.2183205,18 27.410409,17.8647517 27.4682118,17.6981568 L31.9810578,4.71678472 C32.039213,4.5501898 31.958853,4.34626071 31.8030675,4.26349157" id="Fill-1" fill="#FFFFFF"></path>
    </g>
</svg>