<?xml version="1.0" encoding="UTF-8"?>
<svg width="157px" height="13px" viewBox="0 0 157 13" version="1.1" xmlns="http://www.w3.org/2000/svg" xmlns:xlink="http://www.w3.org/1999/xlink">
    <!-- Generator: Sketch 60.1 (88133) - https://sketch.com -->
    <title>Slice 1</title>
    <desc>Created with Sketch.</desc>
    <g id="Page-1" stroke="none" stroke-width="1" fill="none" fill-rule="evenodd">
        <path d="M13.1843162,0 C13.3075301,0 13.4226282,0.103021172 13.4398437,0.22919031 L13.4398437,0.22919031 L14.0770637,4.91805267 C14.0942792,5.04422181 14.206426,5.1708997 14.3266886,5.19964388 L14.3266886,5.19964388 L15.9626545,5.59341369 C16.0826712,5.62241224 16.2390864,5.56085391 16.309916,5.45656087 L16.309916,5.45656087 L18.9640566,1.56668493 C19.035132,1.46264626 19.1824477,1.42627089 19.2909054,1.4860486 L19.2909054,1.4860486 L22.1914738,3.07918835 C22.3001775,3.13896607 22.3562508,3.28624819 22.3156714,3.40656674 L22.3156714,3.40656674 L19.1667078,12.7820021 C19.1263743,12.9023207 18.9923392,13 18.8693712,13 L18.8693712,13 L3.46837136,13 C3.34515746,13 3.21136832,12.9023207 3.17054295,12.7820021 L3.17054295,12.7820021 L0.0132174737,3.40656674 C-0.0273619549,3.28624819 0.0287114373,3.13896607 0.137415119,3.07918835 L0.137415119,3.07918835 L3.02494888,1.4946973 C3.1338985,1.43491958 3.28072225,1.47129496 3.35179773,1.57533362 L3.35179773,1.57533362 L6.00569236,5.4639377 C6.07701378,5.56797636 6.2331831,5.62928032 6.3529539,5.60053614 L6.3529539,5.60053614 L7.99383843,5.2042226 C8.11360922,5.17522404 8.22600194,5.04829179 8.24370933,4.92212265 L8.24370933,4.92212265 L8.8971611,0.22919031 C8.91486849,0.103021172 9.0299665,0 9.1531804,0 L9.1531804,0 Z M132.738097,3.34551971 C135.444304,3.34551971 137.336144,5.41992832 137.336144,8.17275986 C137.336144,10.9255914 135.444304,13 132.738097,13 C130.03189,13 128.14005,10.9255914 128.14005,8.17275986 C128.14005,5.41992832 130.03189,3.34551971 132.738097,3.34551971 Z M39.6057144,3.54121864 L39.6057144,5.00243728 L34.8698513,5.00243728 L34.8698513,7.37691756 L39.3927258,7.37691756 L39.3927258,8.8381362 L34.8698513,8.8381362 L34.8698513,11.3430824 L39.6057144,11.3430824 L39.6057144,12.8043011 L33.353874,12.8043011 L33.353874,3.54121864 L39.6057144,3.54121864 Z M53.7443968,3.54121864 L53.7443968,11.3430824 L57.8663517,11.3430824 L57.8663517,12.8043011 L52.2284195,12.8043011 L52.2284195,3.54121864 L53.7443968,3.54121864 Z M76.2146903,3.54121864 L76.2146903,5.00243728 L71.4788272,5.00243728 L71.4788272,7.37691756 L76.0017017,7.37691756 L76.0017017,8.8381362 L71.4788272,8.8381362 L71.4788272,11.3430824 L76.2146903,11.3430824 L76.2146903,12.8043011 L69.9628499,12.8043011 L69.9628499,3.54121864 L76.2146903,3.54121864 Z M92.8465917,3.54121864 L96.3045234,12.8043011 L94.65073,12.8043011 L94.0117643,11.0169176 L90.0276256,11.0169176 L89.3886599,12.8043011 L87.7849814,12.8043011 L91.2303844,3.54121864 L92.8465917,3.54121864 Z M109.80424,3.54121864 L114.126655,10.2080287 L114.126655,3.54121864 L115.617575,3.54121864 L115.617575,12.8043011 L114.064011,12.8043011 L109.754125,6.15053763 L109.754125,12.8043011 L108.263205,12.8043011 L108.263205,3.54121864 L109.80424,3.54121864 Z M153.767586,3.54121864 C155.734597,3.54121864 156.69931,4.72845878 156.69931,6.34623656 C156.69931,7.57261649 156.135517,8.56415771 154.957816,8.95555556 L157,12.8043011 L155.220919,12.8043011 L153.416781,9.15125448 L151.374597,9.15125448 L151.374597,12.8043011 L149.858619,12.8043011 L149.858619,3.54121864 L153.767586,3.54121864 Z M132.738097,4.85892473 C130.996602,4.85892473 129.743729,6.17663082 129.743729,8.17275986 C129.743729,10.1688889 130.996602,11.486595 132.738097,11.486595 C134.479592,11.486595 135.732465,10.1688889 135.732465,8.17275986 C135.732465,6.17663082 134.479592,4.85892473 132.738097,4.85892473 Z M92.0322237,5.49820789 L92.0071662,5.49820789 L90.5287751,9.58179211 L93.5106148,9.58179211 L92.0322237,5.49820789 Z M153.780114,5.00243728 L151.374597,5.00243728 L151.374597,7.69003584 L153.780114,7.69003584 C154.71977,7.69003584 155.170804,7.14207885 155.170804,6.34623656 C155.170804,5.55039427 154.71977,5.00243728 153.780114,5.00243728 Z" id="Combined-Shape" fill="#171A25"></path>
    </g>
</svg>